{"title":"Quigley Down Under  (Adventure 1990)   Tom Selleck, Laura San Gi","uid":9302987,"size":940871296,"categoryP":"video","categoryS":"movies","magnet":"?xt=urn:btih:6dbe7e426b274f167ebb307f70e5761996412a29&amp;dn=Quigley+Down+Under++%28Adventure+1990%29+++Tom+Selleck%2C+Laura+San+Gi&amp;tr=udp%3A%2F%2Ftracker.openbittorrent.com%3A80&amp;tr=udp%3A%2F%2Fopen.demonii.com%3A1337&amp;tr=udp%3A%2F%2Ftracker.coppersurfer.tk%3A6969&amp;tr=udp%3A%2F%2Fexodus.desync.com%3A6969","seeders":0,"leechers":1,"uploader":"BurtonW","files":10,"time":1386272092,"description":" &lt;a href=&quot;http://www.imdb.com/title/tt0102744/?ref_=nv_sr_1&quot; rel=&quot;nofollow&quot; target=&quot;_NEW&quot;&gt;http://www.imdb.com/title/tt0102744/?ref_=nv_sr_1&lt;/a&gt;\n\n\nExcellent quality film from a BluRay rip.\n\n\nNo subtitles!\n\n\nStoryline:\n\nSharpshooter Matt Quigley is hired from America by an Australian rancher so he can shoot aborigines at a distance. Quigley takes exception to this and leaves. The rancher tries to kill him for refusing, and Quigley escapes into the brush with a woman he rescued from some of the rancher's men, and are helped by aborigines. Quigley returns the help, before going on to destroy all his enemies.\n\n\nTechnical info:\n\n\nGeneral:\n\nComplete name                  : Quigley Down Under  (Adventure 1990)  Tom Selleck, Laura San Giacomo &amp; Alan Rickman.mp4\nFormat                         : MPEG-4\nFormat profile                 : Base Media / Version 2\nCodec ID                       : mp42\nFile size                      : 882 MiB\nDuration                       : 1h 59mn\nOverall bit rate mode          : Variable\nOverall bit rate               : 1 029 Kbps\n\nMovie name:                     : Killer Elite 2011 1080p Blu-ray Remux AVC DTS-HD MA 5.1 - KRaLiMaRKo  (Subtitles may be available under this title. I didn't check, because I didn't intend to include them!)\n \nEncoded date                   : UTC 2013-12-04 19:14:03\nTagged date                    : UTC 2013-12-05 03:00:07\n\n\nVideo:\n\nID                             : 1\nFormat                         : AVC\nFormat/Info                    : Advanced Video Codec\nFormat profile                 : &lt;a class=&quot;__cf_email__&quot; href=&quot;/cdn-cgi/l/email-protection&quot; data-cfemail=&quot;7a371b13143a364e544a&quot;&gt;[email&amp;#160;protected]&lt;/a&gt;&lt;script data-cfhash='f9e31' type=&quot;text/javascript&quot;&gt;\n/* &lt;![CDATA[ */!function(){try{var t=&quot;currentScript&quot;in document?document.currentScript:function(){for(var t=document.getElementsByTagName(&quot;script&quot;),e=t.length;e--;)if(t[e].getAttribute(&quot;data-cfhash&quot;))return t[e]}();if(t&amp;&amp;t.previousSibling){var e,r,n,i,c=t.previousSibling,a=c.getAttribute(&quot;data-cfemail&quot;);if(a){for(e=&quot;&quot;,r=parseInt(a.substr(0,2),16),n=2;a.length-n;n+=2)i=parseInt(a.substr(n,2),16)^r,e+=String.fromCharCode(i);e=document.createTextNode(e),c.parentNode.replaceChild(e,c)}t.parentNode.removeChild(t);}}catch(u){}}()/* ]]&gt; */&lt;/script&gt;\nFormat settings, CABAC         : Yes\nFormat settings, ReFrames      : 16 frames\nCodec ID                       : avc1\nCodec ID/Info                  : Advanced Video Coding\nDuration                       : 1h 59mn\nBit rate mode                  : Variable\nBit rate                       : 864 Kbps\nWidth                          : 720 pixels\nHeight                         : 304 pixels\nDisplay aspect ratio           : 2.35:1\nFrame rate mode                : Variable\nFrame rate                     : 23.976 fps\nMinimum frame rate             : 23.810 fps\nMaximum frame rate             : 1 000.000 fps\nColor space                    : YUV\nChroma subsampling             : 4:2:0\nBit depth                      : 8 bits\nScan type                      : Progressive\nBits/(Pixel*Frame)             : 0.165\nStream size                    : 741 MiB (84%)\nWriting library                : x264 core 130 r2273 b3065e6\nEncoding settings              : Deleted\nEncoded date                   : UTC 2013-12-04 19:14:04\nTagged date                    : UTC 2013-12-05 03:00:07\nColor primaries                : BT.709\nTransfer characteristics       : BT.709\nMatrix coefficients            : BT.709\n\nAudio:\n\nID                             : 2\nFormat                         : AAC\nFormat/Info                    : Advanced Audio Codec\nFormat profile                 : LC\nCodec ID                       : 40\nDuration                       : 1h 59mn\nBit rate mode                  : Variable\nBit rate                       : 160 Kbps\nMaximum bit rate               : 309 Kbps\nChannel(s)                     : 2 channels\nChannel positions              : Front: L R\nSampling rate                  : 48.0 KHz\nCompression mode               : Lossy\nDelay relative to video        : 83ms\nStream size                    : 137 MiB (16%)\nLanguage                       : English\nEncoded date                   : UTC 2013-12-04 19:14:04\nTagged date                    : UTC 2013-12-05 03:00:06\n\n","torrent":{"xt":"urn:btih:6dbe7e426b274f167ebb307f70e5761996412a29","amp;dn":"Quigley+Down+Under++%28Adventure+1990%29+++Tom+Selleck%2C+Laura+San+Gi","amp;tr":["udp%3A%2F%2Ftracker.openbittorrent.com%3A80","udp%3A%2F%2Fopen.demonii.com%3A1337","udp%3A%2F%2Ftracker.coppersurfer.tk%3A6969","udp%3A%2F%2Fexodus.desync.com%3A6969"],"infoHash":"6dbe7e426b274f167ebb307f70e5761996412a29","infoHashBuffer":{"type":"Buffer","data":[109,190,126,66,107,39,79,22,126,187,48,127,112,229,118,25,150,65,42,41]},"announce":[],"urlList":[]}}